<svg width="128" height="128" viewBox="0 0 128 128" fill="none" xmlns="http://www.w3.org/2000/svg">
<path d="M56 80V38.51C56 36.5833 55.6033 34.9967 54.81 33.75C54.13 32.39 52.94 30.86 51.24 29.16C49.54 27.46 48.18 26.61 47.16 26.61C44.8933 26.61 41.89 28.8767 38.15 33.41C38.49 36.2433 38.66 39.2467 38.66 42.42V88H15.2V52.28C15.2 42.6467 14.52 35.9033 13.16 32.05C11.9133 28.1967 9.19333 23.6067 5 18.28L25.4 4C29.0267 6.60667 31.6333 9.72333 33.22 13.35C41.38 7.11667 47.16 4 50.56 4C53.96 4 60.3633 8.36333 69.77 17.09C79.1767 8.36333 85.8067 4 89.66 4C92.4933 4 97.31 7.00333 104.11 13.01C111.023 18.9033 115.33 23.0967 117.03 25.59C118.73 27.97 119.58 31.1433 119.58 35.11V88H96.12V38.51C96.12 36.3567 95.7233 34.7133 94.93 33.58C94.1367 32.3333 92.7767 30.86 90.85 29.16C89.0367 27.46 87.3933 26.61 85.92 26.61C84.56 26.61 82.35 28.48 79.29 32.22C79.4033 32.7867 79.46 33.75 79.46 35.11V80H56Z" fill="#EB3C01"/>
<path d="M15.2 96H38.66L41.138 103.434C42.0744 106.243 41.3823 109.34 39.3388 111.484L27.6538 123.741C27.2598 124.154 26.6002 124.154 26.2062 123.741L14.5212 111.484C12.4777 109.34 11.7856 106.243 12.7221 103.434L15.2 96Z" fill="#EB3C01"/>
<path d="M56 88H79.46L81.9379 95.4338C82.8744 98.2433 82.1822 101.34 80.1388 103.484L68.4538 115.741C68.0597 116.154 67.4002 116.154 67.0062 115.741L55.3212 103.484C53.2777 101.34 52.5855 98.2433 53.522 95.4338L56 88Z" fill="#EB3C01"/>
<path d="M96.12 96H119.58L122.058 103.434C122.994 106.243 122.302 109.34 120.259 111.484L108.574 123.741C108.18 124.154 107.52 124.154 107.126 123.741L95.4412 111.484C93.3977 109.34 92.7056 106.243 93.6421 103.434L96.12 96Z" fill="#EB3C01"/>
</svg>
